<svg width="1554" height="480" viewBox="0 0 1554 480" fill="none" xmlns="http://www.w3.org/2000/svg">
<path d="M555.514 192.381H504V155H654.228V192.381H602.954V321.667H555.514V192.381Z" fill="#0C1C3D"/>
<path d="M792.623 289.286H721.702L708.524 321.667H660.125L734.161 155H780.882L855.158 321.667H805.801L792.623 289.286ZM778.726 254.524L757.162 201.19L735.598 254.524H778.726Z" fill="#0C1C3D"/>
<path d="M959.26 325C934.342 325 914.934 318.254 901.037 304.762C887.3 291.27 880.432 272.143 880.432 247.381V155H927.873V245.952C927.873 272.619 938.495 285.952 959.739 285.952C980.824 285.952 991.366 272.619 991.366 245.952V155H1038.09V247.381C1038.09 272.143 1031.14 291.27 1017.24 304.762C1003.51 318.254 984.178 325 959.26 325Z" fill="#0C1C3D"/>
<path d="M1160.32 277.381H1134.44V321.667H1087V155H1163.67C1178.84 155 1192.02 157.54 1203.2 162.619C1214.38 167.54 1223.01 174.683 1229.08 184.048C1235.15 193.254 1238.18 204.127 1238.18 216.667C1238.18 228.73 1235.31 239.286 1229.56 248.333C1223.97 257.222 1215.9 264.206 1205.36 269.286L1241.54 321.667H1190.74L1160.32 277.381ZM1190.26 216.667C1190.26 208.889 1187.79 202.857 1182.84 198.571C1177.89 194.286 1170.54 192.143 1160.79 192.143H1134.44V240.952H1160.79C1170.54 240.952 1177.89 238.889 1182.84 234.762C1187.79 230.476 1190.26 224.444 1190.26 216.667Z" fill="#0C1C3D"/>
<path d="M1281.13 155H1328.57V321.667H1281.13V155Z" fill="#0C1C3D"/>
<path d="M1491.46 289.286H1420.54L1407.37 321.667H1358.97L1433 155H1479.72L1554 321.667H1504.64L1491.46 289.286ZM1477.57 254.524L1456 201.19L1434.44 254.524H1477.57Z" fill="#0C1C3D"/>
<g filter="url(#filter0_f_42_139)">
<path fill-rule="evenodd" clip-rule="evenodd" d="M250 342.83C323.806 342.83 383.637 283.342 383.637 209.961C383.637 164.236 360.406 123.906 325.039 100.001C369.852 125.951 400 174.43 400 229.952C400 312.821 332.843 380 250 380C167.157 380 100 312.821 100 229.952C100 174.429 130.149 125.949 174.964 100C139.595 123.905 116.364 164.236 116.364 209.961C116.364 283.342 176.195 342.83 250 342.83Z" fill="url(#paint0_linear_42_139)" fill-opacity="0.4"/>
</g>
<path fill-rule="evenodd" clip-rule="evenodd" d="M250 342.83C323.806 342.83 383.637 283.342 383.637 209.961C383.637 164.236 360.406 123.906 325.039 100.001C369.852 125.951 400 174.43 400 229.952C400 312.821 332.843 380 250 380C167.157 380 100 312.821 100 229.952C100 174.429 130.149 125.949 174.964 100C139.595 123.905 116.364 164.236 116.364 209.961C116.364 283.342 176.195 342.83 250 342.83Z" fill="url(#paint1_linear_42_139)"/>
<defs>
<filter id="filter0_f_42_139" x="0" y="0" width="500" height="480" filterUnits="userSpaceOnUse" color-interpolation-filters="sRGB">
<feFlood flood-opacity="0" result="BackgroundImageFix"/>
<feBlend mode="normal" in="SourceGraphic" in2="BackgroundImageFix" result="shape"/>
<feGaussianBlur stdDeviation="50" result="effect1_foregroundBlur_42_139"/>
</filter>
<linearGradient id="paint0_linear_42_139" x1="250" y1="379.633" x2="250" y2="100" gradientUnits="userSpaceOnUse">
<stop stop-color="#00E0FF"/>
<stop offset="0.435578" stop-color="#1577FE"/>
<stop offset="0.801151" stop-color="#6625FB"/>
</linearGradient>
<linearGradient id="paint1_linear_42_139" x1="250" y1="379.633" x2="250" y2="100" gradientUnits="userSpaceOnUse">
<stop stop-color="#00E0FF"/>
<stop offset="0.435578" stop-color="#1577FE"/>
<stop offset="0.801151" stop-color="#6625FB"/>
</linearGradient>
</defs>
</svg>
